<svg id="Calque_1" xmlns="http://www.w3.org/2000/svg" viewBox="0 0 270 27"><style>.st0{fill:#464646}.st1{fill:#f9c737}</style><title>KS_logo_RGB_Grey_Yellow</title><g id="Page-1"><g id="web_desktop_homepage" transform="translate(-225 -66)"><g id="KS_logo_RGB_Grey_Yellow" transform="translate(225 66)"><path id="Fill-1" class="st0" d="M9.8 15.3v-.2L19 5l-3.3-.7V3h8.5v1.2l-3 .7-6.5 7 9 12.6 2.2.5v1.2h-8.1l-8-10.9zM.5 25.1l2.7-.7V4.9L.5 4.3V3H12v1.2l-2.8.7v19.5l2.8.7v1.2H.5v-1.2z"/><path id="Fill-2" class="st0" d="M29.7 3.1c0-1.6 1.3-2.9 2.9-2.9 1.6 0 2.9 1.3 2.9 2.9 0 1.6-1.3 2.9-2.9 2.9-1.6 0-2.9-1.3-2.9-2.9zm-2.2 22l2.2-.5V12.5l-2.2-1.6v-.6l7.9-1.8v16.1l2.2.5v1.2H27.5v-1.2z"/><path id="Fill-3" class="st0" d="M218.9 3.1c0-1.6 1.3-2.9 2.9-2.9 1.6 0 2.9 1.3 2.9 2.9 0 1.6-1.3 2.9-2.9 2.9-1.7 0-2.9-1.3-2.9-2.9zm-2.3 22l2.2-.5V12.5l-2.2-1.6v-.6l7.9-1.8v16.1l2.2.5v1.2h-10.2v-1.2h.1z"/><path id="Fill-4" class="st0" d="M41.1 21.8l.1-10.8h-2.6V9.8l2.6-.9 4.9-4.3h.6V9h5.1v2h-5.1v11c.5 1.7 1.8 2.2 3.2 2.2.8 0 1.6-.2 1.8-.3l.2 1c-1.3.7-3.3 1.9-6.2 1.9-3.2 0-4.6-1.8-4.6-5"/><path id="Fill-5" class="st0" d="M53.9 17.8c0-5.7 4.5-9.4 9.4-9.4 3.6 0 6.3 2 6.3 4.3 0 1.6-1.2 2.4-2.9 2.4-.7 0-1.3-.1-1.5-.3l-1-4.4c-.5-.5-1.1-.8-1.9-.8-2 0-3.3 2.1-3.3 5.1 0 5.3 2.9 8 6.2 8 2.2 0 4-1.2 4.3-1.5l.5.8c-1.7 2.7-4.4 4.8-7.7 4.8-5.1 0-8.4-3.7-8.4-9"/><path id="Fill-6" class="st0" d="M82.8 25.1l1.9-.5v-9.5c0-2-1-3.3-2.9-3.3-1 0-1.9.5-2.4.9v11.9l1.9.5v1.2h-9.6v-1.2l2.1-.5V4.4l-2.1-1.3v-.7L79.4.1v11.3c1.2-1.2 3.4-3 6-3 3.1 0 5 1.7 5 5.4v10.7l2.2.6v1.2h-9.7v-1.2"/><path id="Fill-7" class="st0" d="M99.4 14.7h5.6c-.2-2.8-1.2-4.8-2.8-4.8-1.5 0-2.6 1.5-2.8 4.8zm-5 3c0-5.3 4.5-9.3 8.8-9.3 4.5 0 6.7 2.8 7.3 7.6H99.4c.1 4.6 3.2 6.9 6.4 6.9 1.9 0 3.3-.8 4.4-1.5l.6.7c-1.7 2.4-4.3 4.7-8.1 4.7-5 0-8.3-4.1-8.3-9.1z"/><path id="Fill-8" class="st0" d="M112.9 25.1l2.1-.5V12.5l-2.1-1.4v-.6l6.9-2h.2l.3 3.3h.1c1.1-1.1 3.5-3.2 6.2-3.2 3.1 0 5 1.7 5 5.4v10.7l2.2.6v1.2h-9.7v-1.2l1.9-.5v-9.5c0-2-1-3.3-2.9-3.3-1 0-1.9.5-2.4.9v11.9l1.9.5v1.2H113v-1.4"/><path id="Fill-9" class="st0" d="M143.6 18h1l3 6.1c.9.7 2.1 1.3 3.8 1.3 2.3 0 4-1.6 4-3.9 0-1.9-.9-2.9-3.4-4l-2.1-.8c-3.9-1.6-5.6-3.8-5.6-7 0-3.6 3.1-7.4 9.3-7.4 2.1 0 4.3.7 6 1.4l.1 6.3h-1.1l-2.4-5.5c-.6-.5-1.4-1-2.8-1-2.4 0-3.9 1.5-3.9 3.5 0 2.1 1.2 3.2 4 4.2l2.2.9c3.8 1.5 5.1 3.5 5.1 6.1 0 5.3-4.8 8.4-9.8 8.4-2.7 0-5-.8-6.8-1.5l-.6-7.1"/><path id="Fill-10" class="st0" d="M165 21.8l.1-10.9h-2.6V9.8l2.6-.9 4.9-4.3h.6V9h5.1v2h-5.1v11c.5 1.7 1.8 2.2 3.2 2.2.8 0 1.6-.2 1.8-.3l.2 1c-1.3.7-3.3 1.9-6.2 1.9-3.2 0-4.6-1.8-4.6-5"/><path id="Fill-11" class="st0" d="M183.8 15.8c0 5 1.6 9.8 4.2 9.8 1.9 0 2.9-2.3 2.9-6.2 0-5.3-1.7-9.6-4.2-9.6-2.2-.1-2.9 3.3-2.9 6zm-5.9 2.1c0-5.4 4.2-9.4 9.6-9.4 5.6 0 9.5 3.6 9.5 8.8 0 5.5-4.1 9.5-9.5 9.5-6.2 0-9.6-4.2-9.6-8.9z"/><path id="Fill-12" class="st0" d="M199.4 25.1l2.1-.5V12.5l-2.1-1.4v-.6l7-2h.2l.2 4.7h.1l.5-1.1c1.2-2.5 2.3-3.5 4.2-3.5 1.4 0 2.8.9 2.8 2.7 0 1.8-1.2 2.9-3.5 3.1l-2-1.6c-.6.2-1.5 1.1-1.9 2.2v9.7l3.1.5v1.2h-10.9v-1.3"/><path id="Fill-13" class="st0" d="M233.2 14.7h5.6c-.2-2.8-1.2-4.8-2.8-4.8-1.4 0-2.6 1.5-2.8 4.8zm-4.9 3c0-5.3 4.5-9.3 8.8-9.3 4.5 0 6.7 2.8 7.3 7.6h-11.2c.1 4.6 3.2 6.9 6.4 6.9 1.9 0 3.3-.8 4.4-1.5l.6.7c-1.7 2.4-4.3 4.7-8.1 4.7-5 0-8.2-4.1-8.2-9.1z"/><path id="Fill-14" class="st0" d="M247.9 25.7l-.2-5.6h1l2.2 4.4c.4.5 1.4 1 2.4 1 1.8 0 3-1.1 3-2.6 0-1.2-.7-2.1-2.2-2.7l-2.4-.9c-2.7-1-3.7-2.8-3.7-5.1 0-3.4 3-5.8 7.8-5.8 1.7 0 3.5.5 4.9 1.1v5.1h-.9l-2-3.9c-.6-.5-1.4-.9-2.3-.9-1.5 0-2.6 1-2.6 2.3 0 1.4.9 2.1 2.3 2.6l2.2.8c2.7 1 4.1 2.5 4.1 4.9 0 3.8-3.6 6.4-8.2 6.4-2.1 0-3.7-.4-5.4-1.1"/><path id="Fill-15" class="st1" d="M264.1 23.9c0-1.6 1.4-2.9 2.9-2.9 1.6 0 2.9 1.3 2.9 2.9 0 1.6-1.3 2.9-2.9 2.9-1.5 0-2.9-1.3-2.9-2.9"/></g></g></g></svg>